<svg xmlns="http://www.w3.org/2000/svg" viewBox="0 0 1254 1254" width="1254" height="1254" role="img" aria-label="Inuka logo">
<rect width="100%" height="100%" fill="#ffffff"/>
<path d="M 350.0 929.0 L 344.0 932.0 L 340.0 936.0 L 338.0 939.0 L 336.0 945.0 L 336.0 952.0 L 340.0 961.0 L 344.0 965.0 L 348.0 967.0 L 352.0 968.0 L 362.0 968.0 L 368.0 965.0 L 373.0 960.0 L 375.0 957.0 L 376.0 954.0 L 376.0 943.0 L 373.0 936.0 L 369.0 932.0 L 363.0 929.0 Z M 279.0 394.0 L 352.0 302.0 L 428.0 247.0 L 529.0 209.0 L 648.0 199.0 L 741.0 214.0 L 836.0 255.0 L 917.0 321.0 L 971.0 396.0 L 927.0 310.0 L 847.0 230.0 L 759.0 183.0 L 704.0 167.0 L 649.0 160.0 L 535.0 170.0 L 472.0 191.0 L 426.0 215.0 L 384.0 245.0 L 339.0 290.0 L 304.0 340.0 Z" fill="#008C4F" fill-rule="evenodd"/>
<path d="M 280.0 680.0 L 329.0 772.0 L 398.0 842.0 L 457.0 880.0 L 504.0 901.0 L 600.0 922.0 L 656.0 922.0 L 715.0 912.0 L 765.0 895.0 L 820.0 866.0 L 869.0 829.0 L 910.0 786.0 L 946.0 734.0 L 970.0 682.0 L 897.0 774.0 L 813.0 835.0 L 712.0 874.0 L 604.0 884.0 L 513.0 867.0 L 416.0 822.0 L 342.0 763.0 Z" fill="#F30000" fill-rule="evenodd"/>
<path d="M 549.0 1013.0 L 549.0 1089.0 L 555.0 1107.0 L 565.0 1118.0 L 582.0 1126.0 L 606.0 1127.0 L 620.0 1123.0 L 633.0 1113.0 L 635.0 1115.0 L 634.0 1125.0 L 665.0 1125.0 L 664.0 1012.0 L 633.0 1013.0 L 633.0 1076.0 L 631.0 1083.0 L 620.0 1096.0 L 606.0 1100.0 L 592.0 1097.0 L 585.0 1090.0 L 581.0 1080.0 L 580.0 1012.0 Z M 512.0 1027.0 L 499.0 1016.0 L 484.0 1011.0 L 458.0 1012.0 L 445.0 1018.0 L 436.0 1026.0 L 434.0 1012.0 L 404.0 1013.0 L 405.0 1126.0 L 436.0 1125.0 L 437.0 1059.0 L 442.0 1048.0 L 450.0 1041.0 L 458.0 1038.0 L 476.0 1040.0 L 486.0 1050.0 L 489.0 1061.0 L 490.0 1126.0 L 521.0 1125.0 L 521.0 1053.0 L 519.0 1041.0 Z M 830.0 1022.0 L 839.0 1044.0 L 862.0 1036.0 L 878.0 1035.0 L 893.0 1040.0 L 899.0 1047.0 L 901.0 1058.0 L 899.0 1060.0 L 861.0 1060.0 L 844.0 1064.0 L 835.0 1069.0 L 826.0 1081.0 L 824.0 1092.0 L 826.0 1105.0 L 832.0 1115.0 L 843.0 1123.0 L 857.0 1127.0 L 883.0 1126.0 L 894.0 1121.0 L 902.0 1113.0 L 904.0 1126.0 L 933.0 1125.0 L 933.0 1051.0 L 930.0 1038.0 L 922.0 1025.0 L 907.0 1015.0 L 883.0 1010.0 L 857.0 1012.0 Z M 855.0 1090.0 L 857.0 1085.0 L 862.0 1080.0 L 868.0 1078.0 L 901.0 1079.0 L 901.0 1090.0 L 899.0 1095.0 L 892.0 1102.0 L 885.0 1105.0 L 880.0 1106.0 L 870.0 1106.0 L 866.0 1105.0 L 862.0 1103.0 L 857.0 1098.0 L 856.0 1096.0 L 856.0 1093.0 L 855.0 1092.0 Z M 340.0 981.0 L 339.0 984.0 L 340.0 993.0 L 339.0 1122.0 L 341.0 1126.0 L 373.0 1125.0 L 373.0 981.0 Z M 695.0 969.0 L 694.0 1125.0 L 727.0 1125.0 L 728.0 1095.0 L 743.0 1081.0 L 782.0 1126.0 L 819.0 1124.0 L 769.0 1061.0 L 815.0 1012.0 L 776.0 1013.0 L 728.0 1058.0 L 727.0 969.0 Z M 800.0 726.0 L 800.0 730.0 L 803.0 735.0 L 813.0 746.0 L 823.0 754.0 L 838.0 761.0 L 842.0 762.0 L 858.0 762.0 L 862.0 761.0 L 867.0 758.0 L 871.0 754.0 L 874.0 748.0 L 874.0 732.0 L 871.0 721.0 L 864.0 716.0 L 852.0 711.0 L 847.0 710.0 L 829.0 710.0 L 824.0 711.0 L 812.0 716.0 L 806.0 720.0 Z M 828.0 689.0 L 829.0 692.0 L 831.0 694.0 L 833.0 694.0 L 832.0 691.0 L 830.0 689.0 Z M 407.0 757.0 L 408.0 762.0 L 785.0 761.0 L 782.0 750.0 L 743.0 683.0 L 449.0 684.0 Z M 735.0 733.0 L 758.0 733.0 L 760.0 735.0 L 765.0 746.0 L 763.0 748.0 L 741.0 748.0 L 738.0 745.0 L 735.0 739.0 L 734.0 736.0 Z M 699.0 733.0 L 722.0 733.0 L 724.0 735.0 L 726.0 742.0 L 728.0 746.0 L 726.0 748.0 L 702.0 747.0 L 700.0 743.0 L 699.0 740.0 L 699.0 737.0 L 698.0 736.0 Z M 529.0 743.0 L 532.0 733.0 L 688.0 734.0 L 691.0 746.0 L 689.0 748.0 L 531.0 748.0 L 529.0 746.0 Z M 503.0 741.0 L 503.0 739.0 L 504.0 736.0 L 505.0 734.0 L 520.0 733.0 L 522.0 736.0 L 521.0 740.0 L 520.0 742.0 L 505.0 743.0 Z M 463.0 746.0 L 468.0 735.0 L 470.0 733.0 L 494.0 734.0 L 494.0 736.0 L 492.0 742.0 L 490.0 746.0 L 488.0 748.0 L 465.0 748.0 Z M 426.0 746.0 L 429.0 742.0 L 432.0 735.0 L 434.0 733.0 L 458.0 734.0 L 458.0 736.0 L 453.0 746.0 L 452.0 747.0 L 450.0 748.0 L 428.0 748.0 Z M 677.0 714.0 L 681.0 714.0 L 683.0 716.0 L 684.0 718.0 L 684.0 720.0 L 682.0 722.0 L 677.0 721.0 L 676.0 719.0 Z M 725.0 711.0 L 746.0 711.0 L 748.0 713.0 L 750.0 718.0 L 752.0 720.0 L 754.0 724.0 L 745.0 726.0 L 741.0 726.0 L 730.0 725.0 L 728.0 723.0 L 726.0 719.0 L 724.0 714.0 Z M 692.0 711.0 L 714.0 712.0 L 716.0 716.0 L 716.0 718.0 L 718.0 725.0 L 706.0 726.0 L 703.0 726.0 L 694.0 724.0 L 693.0 722.0 L 691.0 715.0 Z M 645.0 711.0 L 666.0 711.0 L 668.0 713.0 L 669.0 716.0 L 670.0 722.0 L 669.0 725.0 L 667.0 726.0 L 645.0 724.0 L 644.0 719.0 Z M 611.0 713.0 L 613.0 711.0 L 634.0 712.0 L 635.0 714.0 L 635.0 719.0 L 636.0 720.0 L 635.0 725.0 L 616.0 726.0 L 611.0 724.0 Z M 579.0 711.0 L 599.0 711.0 L 601.0 712.0 L 601.0 725.0 L 590.0 726.0 L 585.0 726.0 L 584.0 725.0 L 577.0 724.0 L 577.0 715.0 Z M 544.0 714.0 L 547.0 711.0 L 566.0 711.0 L 568.0 712.0 L 569.0 715.0 L 568.0 721.0 L 566.0 725.0 L 542.0 723.0 Z M 511.0 714.0 L 514.0 711.0 L 533.0 711.0 L 535.0 712.0 L 536.0 714.0 L 534.0 721.0 L 532.0 725.0 L 509.0 722.0 L 510.0 717.0 Z M 474.0 724.0 L 474.0 722.0 L 477.0 717.0 L 478.0 713.0 L 480.0 711.0 L 502.0 712.0 L 502.0 716.0 L 499.0 723.0 L 497.0 725.0 L 486.0 726.0 L 483.0 726.0 Z M 439.0 723.0 L 443.0 715.0 L 447.0 711.0 L 467.0 711.0 L 469.0 714.0 L 466.0 719.0 L 464.0 724.0 Z M 670.0 697.0 L 671.0 695.0 L 676.0 694.0 L 679.0 697.0 L 679.0 700.0 L 677.0 702.0 L 672.0 701.0 Z M 547.0 700.0 L 548.0 696.0 L 550.0 692.0 L 571.0 693.0 L 571.0 699.0 L 570.0 703.0 L 568.0 705.0 L 547.0 704.0 Z M 515.0 704.0 L 515.0 701.0 L 517.0 695.0 L 518.0 693.0 L 539.0 692.0 L 541.0 694.0 L 539.0 701.0 L 538.0 703.0 L 536.0 705.0 Z M 716.0 692.0 L 727.0 691.0 L 732.0 691.0 L 736.0 692.0 L 738.0 694.0 L 743.0 703.0 L 741.0 705.0 L 721.0 705.0 L 719.0 703.0 L 717.0 699.0 L 717.0 697.0 Z M 685.0 692.0 L 692.0 691.0 L 700.0 691.0 L 707.0 693.0 L 710.0 701.0 L 709.0 705.0 L 689.0 705.0 L 687.0 703.0 L 686.0 700.0 L 685.0 695.0 Z M 640.0 694.0 L 642.0 692.0 L 645.0 691.0 L 663.0 693.0 L 664.0 696.0 L 665.0 701.0 L 665.0 703.0 L 663.0 705.0 L 644.0 705.0 L 642.0 703.0 Z M 611.0 692.0 L 621.0 691.0 L 624.0 691.0 L 632.0 693.0 L 633.0 696.0 L 632.0 705.0 L 612.0 705.0 L 610.0 703.0 Z M 579.0 694.0 L 581.0 692.0 L 589.0 691.0 L 594.0 691.0 L 595.0 692.0 L 602.0 693.0 L 602.0 703.0 L 600.0 705.0 L 579.0 704.0 Z M 510.0 693.0 L 508.0 699.0 L 506.0 703.0 L 504.0 705.0 L 484.0 705.0 L 482.0 703.0 L 487.0 693.0 L 498.0 691.0 L 505.0 691.0 Z M 450.0 703.0 L 452.0 699.0 L 455.0 694.0 L 457.0 692.0 L 462.0 691.0 L 470.0 691.0 L 478.0 693.0 L 478.0 695.0 L 474.0 703.0 L 472.0 705.0 L 452.0 705.0 Z M 828.0 682.0 L 829.0 685.0 L 832.0 686.0 L 835.0 689.0 L 838.0 695.0 L 838.0 698.0 L 840.0 702.0 L 842.0 703.0 L 849.0 703.0 L 853.0 704.0 L 858.0 706.0 L 863.0 709.0 L 865.0 709.0 L 863.0 704.0 L 860.0 700.0 L 850.0 690.0 L 847.0 688.0 L 839.0 684.0 L 830.0 682.0 Z M 820.0 682.0 L 814.0 682.0 L 809.0 683.0 L 801.0 687.0 L 798.0 689.0 L 794.0 694.0 L 792.0 698.0 L 791.0 702.0 L 791.0 709.0 L 792.0 714.0 L 796.0 720.0 L 802.0 714.0 L 811.0 708.0 L 821.0 704.0 L 825.0 703.0 L 830.0 703.0 L 831.0 702.0 L 834.0 702.0 L 825.0 692.0 L 823.0 688.0 L 823.0 685.0 Z M 529.0 664.0 L 530.0 670.0 L 718.0 670.0 L 718.0 663.0 L 714.0 658.0 L 676.0 649.0 L 674.0 609.0 L 573.0 609.0 L 573.0 647.0 L 566.0 651.0 L 537.0 656.0 L 533.0 658.0 Z M 430.0 340.0 L 427.0 585.0 L 435.0 598.0 L 809.0 600.0 L 818.0 593.0 L 820.0 347.0 L 812.0 335.0 L 441.0 333.0 Z M 619.0 569.0 L 621.0 568.0 L 626.0 568.0 L 628.0 569.0 L 631.0 572.0 L 632.0 574.0 L 632.0 579.0 L 631.0 581.0 L 628.0 584.0 L 625.0 585.0 L 622.0 585.0 L 620.0 584.0 L 616.0 580.0 L 615.0 578.0 L 615.0 575.0 L 617.0 571.0 Z M 447.0 354.0 L 799.0 352.0 L 800.0 552.0 L 448.0 552.0 Z" fill="#050505" fill-rule="evenodd"/>
</svg>